<?xml version="1.0" standalone="no"?>
<!DOCTYPE svg PUBLIC "-//W3C//DTD SVG 20010904//EN"
 "http://www.w3.org/TR/2001/REC-SVG-20010904/DTD/svg10.dtd">
<svg version="1.0" xmlns="http://www.w3.org/2000/svg"
 width="923.000000pt" height="923.000000pt" viewBox="0 0 923.000000 923.000000"
 preserveAspectRatio="xMidYMid meet">
<metadata>
Created by potrace 1.14, written by Peter Selinger 2001-2017
</metadata>
<g transform="translate(0.000000,923.000000) scale(0.100000,-0.100000)"
fill="#000000" stroke="none">
<path d="M1459 9158 c0 -13 0 -565 0 -1228 l0 -1205 700 -3 c386 -1 702 -5
702 -10 1 -4 2 -951 3 -2104 1 -1392 -2 -2099 -9 -2101 -5 -2 -322 -4 -703 -3
l-692 1 0 -120 c-1 -182 -1 -2051 -1 -2207 l1 -136 3162 1 3162 2 1 1227 c0
810 -3 1229 -10 1231 -5 1 -322 2 -702 2 l-693 -1 0 45 c-1 59 -1 4106 0 4146
l0 30 702 -3 703 -2 -1 1217 c-1 670 -2 1224 -3 1231 -1 9 -640 12 -3161 12
l-3160 0 -1 -22z"/>
</g>
</svg>
