<?xml version="1.0" standalone="no"?>
<!DOCTYPE svg PUBLIC "-//W3C//DTD SVG 20010904//EN"
 "http://www.w3.org/TR/2001/REC-SVG-20010904/DTD/svg10.dtd">
<svg version="1.0" xmlns="http://www.w3.org/2000/svg"
 width="512.000000pt" height="512.000000pt" viewBox="0 0 512.000000 512.000000"
 preserveAspectRatio="xMidYMid meet">
<metadata>
Created by potrace 1.14, written by Peter Selinger 2001-2017
</metadata>
<g transform="translate(0.000000,512.000000) scale(0.100000,-0.100000)"
fill="#000000" stroke="none">
<path d="M2565 5111 c6 -11 3 -13 -14 -8 -18 4 -20 3 -11 -8 8 -10 8 -15 -1
-21 -8 -4 -9 -3 -5 4 5 8 -1 12 -14 12 -13 0 -24 -8 -27 -20 -7 -25 -20 -26
-26 -2 -4 14 -5 15 -6 1 0 -9 -10 -19 -22 -22 -12 -3 -18 -10 -15 -15 3 -6 -1
-12 -9 -15 -9 -4 -12 -1 -8 9 4 10 0 12 -11 8 -9 -3 -13 -11 -9 -17 4 -7 0 -8
-11 -4 -13 5 -19 1 -23 -13 -3 -11 -10 -20 -15 -20 -5 0 -7 -4 -3 -9 3 -5 0
-13 -6 -17 -7 -4 -9 -3 -6 3 14 23 -27 24 -47 1 -14 -14 -15 -17 -3 -9 11 9
17 10 17 2 0 -6 -3 -11 -7 -12 -5 0 -16 -2 -26 -4 -9 -2 -15 1 -11 6 3 5 0 9
-5 9 -10 0 -15 -20 -13 -41 1 -4 -8 -5 -18 -2 -11 3 -20 10 -20 16 0 6 -7 1
-16 -11 -13 -19 -18 -21 -32 -10 -14 10 -15 10 -4 -2 17 -19 15 -35 -2 -21
-11 9 -16 9 -22 0 -5 -8 -3 -9 7 -4 12 8 12 6 0 -8 -13 -17 -37 -24 -27 -9 3
5 -1 9 -9 9 -10 0 -11 -5 -6 -16 6 -10 4 -21 -5 -29 -8 -7 -14 -8 -14 -2 0 5
-7 10 -16 10 -10 0 -14 -6 -11 -14 8 -21 -3 -27 -27 -14 -20 10 -20 10 -6 -7
14 -17 14 -18 -9 -6 -18 10 -22 10 -16 1 6 -9 0 -11 -23 -8 -17 2 -29 1 -26
-3 2 -4 1 -9 -3 -12 -5 -2 -2 -2 5 0 7 1 10 -2 7 -7 -3 -6 -13 -10 -21 -10 -8
0 -13 -4 -10 -8 2 -4 -5 -9 -17 -9 -17 -2 -18 0 -7 7 11 7 10 9 -8 7 -14 -1
-21 -6 -18 -14 3 -7 1 -13 -5 -13 -6 0 -7 -6 -3 -12 4 -7 -3 -4 -16 7 l-23 20
11 -21 c6 -11 7 -26 3 -33 -6 -10 -10 -9 -14 4 -5 10 -3 14 5 9 7 -4 8 -3 4 4
-9 14 -48 -7 -42 -23 2 -6 -7 -18 -20 -28 -13 -10 -24 -13 -24 -7 0 5 5 10 10
10 6 0 10 4 10 8 0 4 -9 8 -20 8 -12 0 -19 -5 -16 -12 3 -7 -7 -20 -21 -29
-23 -15 -25 -15 -20 -2 4 11 2 14 -8 11 -8 -3 -11 -12 -8 -20 4 -10 0 -12 -11
-8 -9 3 -16 1 -16 -5 0 -6 5 -11 12 -11 6 0 8 -3 5 -7 -4 -3 -16 2 -27 12 -19
17 -20 17 -14 1 5 -12 1 -19 -15 -23 -11 -3 -21 -10 -21 -15 0 -5 -5 -6 -10
-3 -8 5 -7 12 2 23 10 12 10 14 1 8 -7 -4 -18 -16 -24 -28 -7 -13 -7 -18 -1
-14 6 3 14 1 18 -6 4 -7 4 -10 -1 -6 -4 4 -15 2 -23 -5 -13 -9 -14 -9 -8 1 4
6 3 12 -1 12 -5 0 -13 -10 -18 -22 -6 -12 -17 -24 -25 -26 -10 -3 -8 2 5 13
l20 17 -20 -7 c-11 -4 -25 -8 -32 -8 -6 0 -10 -9 -8 -19 2 -10 0 -16 -5 -13
-5 3 -11 1 -14 -3 -3 -5 -17 -8 -31 -6 -22 2 -25 -1 -20 -19 4 -12 3 -17 -2
-12 -13 17 -46 19 -40 2 3 -8 -3 -21 -13 -30 -18 -15 -19 -14 -25 4 -4 10 -11
16 -17 13 -6 -4 -6 -9 -1 -13 11 -8 11 -27 0 -38 -5 -4 -7 -3 -5 2 2 6 -1 11
-6 12 -5 1 -13 7 -18 15 -6 9 -7 5 -3 -11 6 -20 4 -23 -10 -17 -15 5 -16 4 -5
-9 11 -13 11 -16 -1 -13 -8 2 -20 10 -26 18 -11 13 -12 12 -6 -4 5 -15 3 -18
-10 -13 -11 4 -15 1 -12 -13 3 -13 -1 -17 -11 -13 -7 3 -11 10 -8 17 3 6 -1 3
-9 -6 -8 -10 -17 -14 -21 -10 -4 4 -7 3 -6 -3 5 -22 -1 -27 -17 -14 -15 13
-15 12 -3 -11 10 -21 10 -23 -1 -12 -18 17 -34 15 -20 -2 9 -11 9 -16 0 -22
-7 -4 -9 -3 -5 4 4 6 -1 10 -13 9 -11 0 -17 -6 -14 -14 3 -7 -2 -13 -10 -13
-8 0 -18 -6 -20 -12 -4 -10 -6 -10 -6 0 -1 6 -6 12 -12 12 -6 0 -8 -7 -5 -16
5 -13 4 -14 -7 -6 -8 7 -17 8 -21 4 -4 -4 -12 -7 -17 -7 -5 0 -15 -11 -22 -24
-7 -14 -22 -25 -37 -27 -14 -1 -19 0 -12 2 6 3 12 10 12 16 0 6 -6 6 -15 -2
-10 -8 -12 -17 -5 -29 7 -15 3 -17 -33 -17 -27 0 -42 -5 -45 -15 -3 -11 -1
-11 8 1 10 13 11 13 7 0 -2 -8 -11 -14 -21 -12 -10 2 -16 -4 -16 -15 0 -10 -4
-14 -8 -8 -13 18 -31 15 -37 -6 -5 -15 -10 -17 -19 -10 -10 8 -18 6 -31 -9
-10 -11 -22 -17 -28 -13 -6 3 -7 1 -3 -6 4 -6 11 -9 16 -6 5 3 11 1 15 -4 3
-6 -6 -8 -21 -5 -19 4 -25 1 -21 -8 3 -9 -4 -15 -20 -16 -16 -1 -22 2 -17 10
4 7 3 8 -5 4 -8 -5 -9 -12 -2 -20 7 -8 3 -12 -16 -14 -15 -1 -30 -7 -34 -13
-4 -8 -9 -7 -13 2 -3 8 -4 4 -2 -8 2 -13 0 -23 -5 -23 -5 0 -9 6 -9 13 0 8 -4
7 -10 -3 -9 -14 -14 -7 -11 13 1 5 -3 6 -8 2 -6 -3 -8 -12 -4 -20 4 -11 1 -13
-13 -8 -13 5 -15 3 -9 -7 6 -10 4 -12 -7 -8 -8 4 -21 2 -29 -3 -11 -8 -11 -9
3 -7 9 2 17 -1 17 -7 0 -5 -11 -8 -26 -7 -16 3 -23 0 -19 -7 4 -7 -1 -11 -14
-11 -14 0 -19 -4 -14 -12 5 -7 2 -9 -7 -6 -11 4 -14 -1 -13 -23 1 -16 -3 -29
-9 -29 -8 0 -7 -4 2 -9 10 -6 10 -13 3 -28 -8 -14 -8 -23 0 -31 9 -9 8 -12 -3
-12 -11 0 -11 -2 -1 -9 17 -11 17 -21 0 -32 -9 -6 -9 -9 -1 -9 6 0 11 -9 10
-20 -1 -11 -5 -20 -10 -20 -5 0 -4 -7 3 -15 10 -12 10 -15 -1 -15 -12 0 -12
-2 -1 -9 17 -11 17 -21 0 -32 -9 -6 -9 -9 -1 -9 6 0 11 -9 10 -20 -1 -11 -5
-20 -10 -20 -5 0 -4 -7 3 -15 10 -12 10 -15 -1 -15 -12 0 -12 -2 0 -9 10 -6
10 -13 3 -28 -8 -14 -8 -23 0 -31 9 -9 8 -12 -2 -12 -12 0 -12 -2 -2 -9 17
-11 17 -21 0 -32 -9 -6 -9 -9 -1 -9 6 0 11 -9 10 -20 -1 -11 -5 -20 -10 -20
-5 0 -4 -7 3 -15 10 -12 10 -15 -1 -15 -12 0 -12 -2 -1 -9 17 -11 17 -21 0
-32 -9 -6 -9 -9 -1 -9 6 0 11 -9 10 -20 -1 -11 -5 -20 -9 -20 -5 0 -5 -8 -1
-17 10 -22 10 -94 -1 -111 -4 -6 -3 -12 1 -12 10 0 9 -132 -1 -149 -4 -6 -3
-11 2 -11 6 0 9 -11 8 -25 0 -14 -5 -25 -11 -25 -5 0 -4 -4 3 -9 17 -11 17
-21 0 -32 -9 -6 -9 -9 -1 -9 6 0 11 -9 10 -20 -1 -11 -5 -20 -10 -20 -5 0 -4
-7 3 -15 10 -12 10 -15 -1 -15 -12 0 -12 -2 -1 -9 17 -11 17 -21 0 -32 -9 -6
-9 -9 -1 -9 6 0 11 -9 10 -20 -1 -11 -5 -20 -10 -20 -5 0 -4 -7 3 -15 10 -12
10 -15 -1 -15 -12 0 -12 -2 -1 -9 8 -4 14 -12 14 -16 0 -4 -6 -12 -14 -16 -9
-6 -9 -9 -1 -9 6 0 11 -9 10 -20 -1 -11 -5 -20 -10 -20 -5 0 -4 -7 3 -15 10
-12 10 -15 -1 -15 -12 0 -12 -2 -1 -9 17 -11 17 -21 0 -32 -9 -6 -9 -9 -1 -9
6 0 11 -9 10 -20 -1 -11 -5 -20 -10 -20 -5 0 -4 -7 3 -15 10 -12 10 -15 -1
-15 -12 0 -12 -2 -1 -9 17 -11 17 -21 0 -32 -9 -6 -9 -9 -1 -9 6 0 11 -9 10
-20 -1 -11 -5 -20 -10 -20 -5 0 -4 -7 3 -15 10 -12 10 -15 -1 -15 -9 0 -10 -3
-4 -8 11 -8 12 -112 1 -130 -4 -7 -3 -12 1 -12 10 0 9 -132 -1 -149 -4 -6 -2
-11 3 -11 13 0 10 -42 -4 -52 -6 -5 -6 -8 2 -8 6 0 11 -9 10 -20 -1 -11 -5
-20 -10 -20 -5 0 -4 -7 3 -15 10 -12 10 -15 -1 -15 -12 0 -12 -2 -1 -9 17 -11
17 -21 0 -32 -9 -6 -9 -9 -1 -9 6 0 11 -9 10 -20 -1 -11 -5 -20 -10 -20 -5 0
-4 -7 3 -15 10 -12 10 -15 -1 -15 -12 0 -12 -2 -1 -9 17 -11 17 -21 0 -32 -9
-6 -9 -9 -1 -9 6 0 11 -9 10 -20 -1 -11 -5 -20 -10 -20 -5 0 -4 -7 3 -15 10
-12 10 -15 -1 -15 -12 0 -12 -2 0 -9 10 -6 11 -13 2 -29 -8 -15 -8 -23 0 -28
8 -4 7 -9 -2 -15 -10 -6 -11 -9 -2 -9 15 0 13 -21 -2 -32 -6 -5 -6 -8 2 -8 6
0 11 -9 10 -20 -1 -11 -5 -20 -10 -20 -5 0 -4 -7 3 -15 10 -12 10 -15 -1 -15
-12 0 -12 -2 -1 -9 17 -11 17 -21 0 -32 -9 -6 -10 -9 -1 -9 8 0 11 -11 9 -30
-2 -17 1 -30 6 -30 5 0 6 -6 2 -12 -5 -8 0 -7 11 2 17 14 18 13 12 -2 -7 -21
3 -23 23 -5 8 6 5 0 -8 -14 -17 -19 -19 -26 -8 -26 8 0 13 4 11 8 -6 9 21 20
29 12 3 -4 1 -12 -4 -18 -8 -10 -3 -12 20 -10 21 2 30 -2 30 -12 0 -8 4 -12 9
-8 5 3 13 -4 16 -16 6 -17 9 -19 16 -8 7 12 10 12 21 0 11 -11 11 -13 -1 -6
-9 5 -12 4 -7 -4 4 -6 17 -9 30 -7 15 3 23 -1 23 -10 0 -9 -4 -10 -12 -4 -6 5
-16 5 -25 -2 -12 -8 -12 -9 2 -4 10 3 20 1 23 -4 9 -15 48 -12 39 3 -4 6 5 1
19 -12 15 -14 27 -27 27 -29 0 -3 -9 3 -20 13 -11 10 -20 14 -20 9 0 -5 12
-17 26 -27 13 -10 24 -15 23 -10 -4 22 3 25 17 7 8 -10 12 -12 8 -4 -7 13 -5
13 9 1 9 -7 14 -17 11 -22 -3 -5 3 -6 13 -2 16 6 16 5 4 -10 -13 -16 -12 -17
11 -8 27 10 38 6 38 -13 0 -6 -5 -4 -11 4 -9 13 -10 13 -6 0 2 -8 11 -14 21
-12 9 2 16 -4 16 -13 0 -8 5 -15 11 -15 6 0 8 7 5 16 -3 8 -2 12 4 9 6 -3 10
-13 10 -21 0 -8 10 -14 25 -14 14 0 25 -4 25 -9 0 -5 7 -12 16 -15 15 -6 15
-4 3 11 -13 17 -12 17 4 4 11 -9 16 -22 13 -33 -3 -16 -2 -17 10 -7 7 6 11 16
8 23 -3 6 3 1 14 -11 11 -13 25 -23 32 -23 6 0 8 -4 5 -10 -3 -5 -1 -10 5 -10
6 0 8 -5 5 -10 -6 -10 14 -14 43 -11 8 1 16 -7 19 -18 3 -12 10 -21 15 -21 5
0 7 4 3 9 -3 6 3 9 14 8 11 0 17 -5 15 -9 -5 -7 10 -12 28 -9 5 0 8 -4 8 -9 0
-6 -6 -10 -12 -10 -9 0 -8 -3 2 -10 9 -5 19 -5 26 0 15 13 26 0 13 -16 -8 -10
-5 -11 12 -7 15 4 20 3 15 -5 -4 -7 -2 -12 4 -12 6 0 8 -5 4 -12 -5 -7 -3 -8
5 -4 7 5 10 15 7 25 -5 14 -4 13 8 -1 7 -10 18 -18 25 -18 6 0 11 -4 11 -10 0
-5 5 -10 11 -10 5 0 7 5 3 12 -4 7 -3 8 5 4 6 -4 9 -12 6 -17 -4 -5 -1 -9 4
-9 6 0 11 5 11 10 0 6 5 10 10 10 7 0 7 -7 -1 -21 -8 -15 -8 -19 0 -15 6 4 11
2 11 -5 0 -10 3 -10 12 -1 17 17 28 15 28 -5 0 -15 2 -16 10 -3 8 13 10 12 10
-2 0 -10 -5 -18 -12 -18 -6 0 -8 -3 -5 -6 4 -4 18 1 32 10 14 9 25 13 24 9 -3
-21 2 -33 15 -33 8 0 18 -9 21 -21 6 -17 13 -20 36 -15 23 4 29 2 29 -12 0
-15 -2 -15 -10 -2 -5 8 -10 10 -10 4 0 -18 13 -24 27 -12 11 9 12 7 7 -7 -4
-10 -3 -16 2 -13 5 3 20 2 33 -3 16 -7 21 -14 17 -26 -4 -10 -4 -14 0 -10 4 4
16 -1 27 -10 11 -10 17 -12 13 -5 -8 14 28 12 41 -3 5 -4 3 -5 -3 -2 -6 3 -11
1 -11 -6 0 -7 8 -13 18 -13 10 0 16 3 14 6 -2 4 2 7 10 7 8 0 17 -7 19 -14 4
-8 11 -11 18 -7 10 6 10 4 0 -8 -10 -13 -10 -18 -1 -24 7 -4 9 -3 6 3 -4 6 -1
13 7 16 9 4 12 -2 10 -20 -1 -14 0 -22 3 -19 4 3 12 1 20 -5 18 -16 16 -4 -3
15 -8 9 -11 16 -7 16 15 0 52 -47 45 -56 -4 -4 -2 -4 5 -1 6 4 13 4 16 0 2 -5
2 -3 1 4 -2 7 2 15 8 19 7 4 8 3 4 -4 -4 -7 -1 -12 8 -12 10 0 13 -6 9 -17 -6
-15 -4 -16 9 -5 13 10 15 9 12 -13 -2 -22 0 -24 12 -14 17 14 19 23 2 13 -7
-4 -8 -3 -4 4 11 19 26 14 26 -8 0 -14 7 -20 21 -20 13 0 18 4 13 13 -4 7 -3
9 2 4 5 -5 10 -13 10 -18 1 -5 2 -12 3 -15 0 -4 7 -1 15 5 11 9 13 7 12 -10
-1 -14 6 -23 17 -25 9 -2 24 -5 32 -7 8 -2 18 -7 22 -12 4 -4 3 -5 -4 -1 -6 3
-15 2 -18 -4 -4 -6 -3 -10 2 -9 28 5 73 -2 68 -11 -3 -6 2 -10 12 -10 14 0 15
-2 5 -9 -11 -7 -10 -9 3 -14 9 -4 13 -3 10 2 -3 5 -1 12 5 16 5 3 10 1 10 -5
0 -6 4 -9 9 -5 5 3 13 0 17 -6 4 -7 3 -9 -4 -5 -6 3 -13 2 -16 -3 -3 -5 12 -8
34 -7 46 1 49 -1 18 -14 -21 -9 -20 -10 7 -7 23 1 30 -2 29 -15 -1 -9 4 -14
11 -12 7 3 16 0 21 -7 4 -7 3 -10 -4 -5 -6 3 -13 2 -16 -3 -4 -5 2 -8 11 -6
10 2 22 4 26 4 5 1 5 6 1 13 -4 7 -3 8 5 4 6 -4 9 -12 6 -17 -4 -5 2 -9 12 -9
15 0 16 -2 3 -10 -13 -9 -13 -10 1 -10 8 0 21 6 28 13 11 10 11 8 1 -13 -13
-25 -13 -25 8 -7 20 18 20 18 18 -7 -2 -14 0 -25 3 -24 3 0 9 -1 14 -2 19 -6
33 -5 40 5 4 5 6 -2 3 -16 -3 -17 1 -26 9 -26 8 0 11 7 7 16 -5 13 -3 13 12
-2 10 -9 21 -15 25 -12 5 2 18 -5 30 -17 17 -15 26 -17 34 -9 15 15 30 14 22
-1 -4 -7 1 -4 10 7 9 11 21 19 27 17 7 -2 6 3 -2 13 -11 13 -10 15 4 9 9 -3
16 -11 16 -18 0 -6 4 -5 9 4 6 8 7 18 4 24 -3 5 -1 6 6 2 6 -4 8 -12 5 -18 -4
-7 -2 -8 4 -4 7 4 12 13 12 21 0 8 9 20 20 28 11 8 17 18 12 23 -4 4 1 2 10
-5 15 -11 22 -11 43 3 14 9 30 14 35 11 6 -3 7 1 4 10 -5 11 -2 14 11 8 15 -5
17 -2 13 15 -4 12 -2 20 2 17 5 -3 13 3 19 12 6 10 11 13 11 8 0 -6 -5 -16
-11 -22 -8 -8 -7 -13 2 -18 8 -6 10 -4 4 5 -6 10 -4 12 8 7 11 -4 14 -2 10 9
-6 16 26 46 39 38 5 -3 8 2 8 11 0 9 4 14 10 10 5 -3 7 -13 4 -23 -3 -9 1 -7
8 6 15 24 58 58 58 45 0 -4 5 -1 11 7 9 13 10 13 6 0 -2 -8 -10 -14 -16 -12
-7 1 -10 -2 -6 -7 8 -14 28 -5 43 20 11 17 11 20 0 14 -7 -5 -4 1 7 12 17 17
22 18 31 5 9 -12 12 -12 23 2 8 9 10 16 6 16 -4 0 -2 6 4 14 7 8 20 12 31 9
27 -7 53 20 37 38 -7 7 -2 5 10 -5 24 -20 43 -14 43 12 0 15 2 15 11 2 9 -12
10 -10 6 8 -5 20 -3 21 11 10 13 -11 15 -11 9 4 -3 10 -1 20 5 24 7 5 8 2 3
-6 -6 -10 -4 -12 7 -7 9 3 21 0 27 -6 8 -8 9 -4 6 12 -4 20 -1 22 21 17 22 -6
24 -5 12 8 -7 7 -17 11 -22 8 -5 -3 -6 0 -2 7 5 7 12 9 19 3 7 -5 20 -9 29 -9
13 0 15 4 7 13 -7 9 -6 12 8 9 10 -1 23 2 30 7 7 5 18 6 25 2 9 -6 9 -3 -1 9
-13 16 -12 17 10 8 21 -8 25 -6 26 12 1 11 7 25 14 31 8 8 9 5 4 -12 l-7 -24
24 24 c12 12 23 26 23 31 0 8 18 8 25 0 3 -4 -1 -3 -9 2 -10 5 -12 4 -7 -4 10
-15 29 -3 22 15 -3 8 -1 14 4 14 6 0 10 -4 10 -10 0 -5 5 -10 11 -10 5 0 7 5
4 10 -3 6 -2 10 4 10 5 0 11 -5 13 -12 3 -7 7 -5 11 6 5 11 3 15 -5 10 -7 -5
-8 -3 -4 5 5 7 14 10 22 7 9 -4 18 4 24 19 5 14 12 25 15 25 4 0 3 -4 0 -10
-3 -5 -1 -10 4 -10 6 0 11 5 11 11 0 7 9 9 21 6 16 -4 18 -3 8 9 -9 11 -7 14
15 14 14 0 29 1 34 2 11 2 31 32 26 40 -5 8 17 5 32 -5 17 -10 25 4 11 21 -10
13 -9 14 9 4 19 -10 21 -9 19 11 -2 18 3 23 22 25 14 1 22 -2 18 -8 -4 -6 -10
-8 -15 -5 -5 3 -11 1 -14 -4 -4 -5 -2 -12 3 -15 12 -8 44 30 36 43 -4 7 0 8
11 4 13 -5 16 -3 11 10 -4 11 -2 14 8 10 8 -3 13 -9 10 -13 -3 -5 0 -12 6 -16
8 -4 9 -3 5 4 -4 7 -2 12 4 12 7 0 9 7 6 16 -5 14 -4 15 8 5 13 -11 15 -9 11
8 -5 25 -1 26 20 5 14 -15 15 -14 11 10 -3 15 -1 24 4 21 5 -3 13 3 19 12 6
10 11 13 11 6 0 -13 25 -12 37 2 4 4 2 5 -6 0 -9 -5 -12 -4 -7 3 10 16 39 15
31 0 -4 -7 1 -4 9 6 9 11 16 23 16 27 0 4 9 5 20 2 11 -3 20 -1 20 5 0 16 33
24 42 10 5 -8 6 -1 2 17 -6 29 -6 29 9 10 16 -20 16 -20 12 3 -3 20 -2 21 18
10 21 -11 21 -10 7 7 -14 17 -13 18 4 12 14 -6 17 -4 12 8 -3 8 -1 15 3 15 5
0 12 -7 15 -16 5 -13 9 -14 22 -4 8 7 13 19 10 27 -3 7 -1 13 5 13 6 0 7 6 3
13 -6 9 -5 9 8 0 8 -7 19 -9 23 -5 5 4 5 1 1 -6 -4 -7 -12 -9 -18 -6 -7 4 -8
2 -4 -4 5 -9 12 -9 26 0 13 9 16 16 9 24 -7 8 -5 11 8 10 10 0 17 5 15 12 -1
8 2 11 8 7 6 -3 8 -10 5 -15 -3 -5 -1 -12 5 -15 6 -4 10 -3 9 2 -4 21 2 34 13
27 7 -4 8 -3 4 4 -5 8 1 12 14 12 12 0 19 4 15 9 -3 5 -1 12 4 16 5 3 14 -2
19 -11 8 -14 10 -14 15 5 3 13 1 19 -5 14 -7 -4 -8 -1 -3 6 5 9 10 10 18 2 7
-7 18 -4 37 9 15 11 30 17 33 14 3 -3 3 5 0 18 -4 18 -2 20 6 8 9 -13 12 -13
23 -1 11 11 11 13 -1 6 -10 -6 -12 -4 -7 4 6 9 11 9 24 -1 13 -11 14 -11 7 1
-6 11 -4 13 10 7 15 -5 16 -4 5 9 -11 13 -10 14 5 8 14 -5 17 -3 12 10 -4 11
-2 14 8 10 8 -3 12 -10 8 -17 -4 -8 -2 -8 7 1 7 6 20 9 29 6 14 -4 14 -3 1 6
-13 9 -13 12 -1 23 11 11 13 11 6 -1 -6 -10 -4 -12 4 -7 7 5 10 15 7 23 -4 8
-1 11 5 8 6 -4 13 2 16 14 3 11 10 18 16 14 6 -4 8 4 5 21 -3 14 -2 26 2 26 4
0 4 16 0 35 -5 24 -4 35 4 35 6 0 4 5 -4 10 -11 7 -11 10 -2 10 7 0 10 5 7 11
-12 18 -13 59 -1 59 6 0 4 5 -4 10 -9 6 -10 10 -3 10 8 0 9 9 3 30 -5 17 -5
30 0 30 4 0 4 16 0 35 -5 24 -4 35 4 35 6 0 4 5 -4 10 -11 7 -11 10 -2 10 7 0
10 5 7 11 -12 18 -13 59 -1 59 6 0 4 5 -4 10 -9 6 -10 10 -3 10 8 0 9 9 3 30
-5 17 -5 30 0 30 5 0 7 6 5 13 -9 24 -12 87 -4 87 4 0 4 14 -1 30 -5 17 -5 30
0 30 4 0 4 16 0 35 -5 24 -4 35 4 35 6 0 4 5 -4 10 -11 7 -11 10 -2 10 7 0 10
5 7 11 -12 18 -13 59 -1 59 6 0 4 5 -4 10 -9 6 -10 10 -3 10 8 0 9 9 3 30 -5
17 -5 30 0 30 4 0 4 16 0 35 -5 24 -4 35 4 35 6 0 4 5 -4 10 -11 7 -11 10 -2
10 7 0 10 5 7 11 -12 18 -13 59 -1 59 6 0 4 5 -4 10 -9 6 -10 10 -3 10 8 0 9
9 3 30 -5 17 -5 30 0 30 5 0 7 6 5 13 -9 24 -12 87 -4 87 4 0 4 14 -1 30 -5
17 -5 30 0 30 4 0 4 16 0 35 -5 24 -4 35 4 35 6 0 4 5 -4 10 -11 7 -11 10 -2
10 7 0 10 5 7 11 -12 18 -13 59 -1 59 6 0 4 5 -4 10 -9 6 -10 10 -3 10 8 0 9
9 3 30 -5 17 -5 30 0 30 4 0 4 16 0 35 -5 24 -4 35 4 35 6 0 4 5 -4 10 -11 7
-11 10 -2 10 7 0 10 5 7 11 -12 18 -13 59 -1 59 6 0 4 5 -4 10 -9 6 -10 10 -3
10 8 0 9 9 3 30 -5 17 -5 30 0 30 5 0 7 6 5 13 -9 24 -12 87 -4 87 4 0 4 14
-1 30 -5 17 -5 30 0 30 4 0 4 16 0 35 -5 24 -4 35 4 35 6 0 4 5 -4 10 -11 7
-11 10 -2 10 7 0 10 5 7 11 -12 18 -13 59 -1 59 6 0 4 5 -4 10 -9 6 -10 10 -3
10 8 0 9 9 3 30 -5 17 -5 30 0 30 4 0 4 16 0 35 -5 24 -4 35 4 35 6 0 4 5 -4
10 -11 7 -11 10 -2 10 7 0 10 5 7 11 -12 18 -13 59 -1 59 6 0 4 5 -4 10 -9 6
-10 10 -3 10 8 0 9 9 3 30 -5 19 -5 30 1 30 6 0 7 5 4 10 -3 6 -7 28 -7 50 0
22 -5 40 -10 40 -5 0 -6 -5 -2 -12 5 -7 3 -8 -5 -4 -7 5 -10 11 -7 14 3 3 0
12 -7 21 -11 14 -10 14 6 2 9 -8 20 -11 24 -7 3 3 1 6 -6 6 -7 0 -10 4 -7 8 2
4 -5 9 -17 9 -12 1 -23 7 -25 13 -2 5 -13 10 -24 10 -17 0 -19 2 -8 16 8 8 9
14 4 13 -21 -4 -43 2 -56 14 -7 6 -25 18 -40 26 -15 8 -25 19 -21 25 3 6 0 5
-8 -1 -19 -19 -29 -16 -29 10 0 17 -2 19 -9 7 -6 -8 -7 -19 -3 -25 3 -5 -13 7
-37 27 -24 21 -48 35 -53 32 -14 -9 -47 26 -41 42 3 8 0 14 -5 14 -6 0 -13 -8
-15 -17 -4 -17 -5 -17 -6 -1 0 10 -7 16 -13 14 -7 -1 -10 -1 -5 1 4 3 7 9 7
14 0 6 -5 7 -10 4 -6 -4 -18 -1 -27 7 -12 9 -15 9 -9 1 4 -7 2 -13 -3 -13 -6
0 -11 10 -11 23 -1 20 -2 20 -11 4 -12 -20 -29 -14 -28 11 0 14 2 13 9 -3 7
-16 9 -17 9 -3 1 25 -16 31 -29 11 -10 -16 -11 -16 -7 4 3 15 1 20 -9 16 -8
-3 -17 2 -20 11 -3 9 -10 13 -15 10 -5 -3 -6 -11 -2 -17 4 -7 1 -7 -9 1 -10 8
-14 20 -11 29 4 10 2 14 -5 9 -6 -3 -13 -2 -16 2 -3 5 -16 7 -30 5 -13 -3 -27
0 -30 6 -5 7 -1 8 11 4 15 -6 16 -5 3 8 -19 20 -40 20 -33 0 5 -12 1 -11 -14
4 -14 13 -16 22 -9 27 7 5 7 8 1 8 -6 0 -16 -5 -22 -11 -7 -7 -12 -6 -17 6 -4
11 -2 14 7 9 9 -5 9 -4 0 6 -7 7 -20 14 -30 15 -10 1 -28 7 -40 13 -12 7 -23
9 -26 4 -2 -4 -2 -1 -1 6 2 6 -3 12 -10 12 -8 0 -16 9 -19 20 -3 13 -11 18
-26 15 -13 -2 -24 2 -28 11 -3 9 -9 11 -17 5 -7 -6 -18 -4 -30 5 -11 8 -15 14
-10 14 6 0 15 -5 22 -12 9 -9 12 -8 12 5 0 9 -3 16 -7 16 -31 -5 -55 3 -50 15
3 8 -2 20 -11 28 -15 11 -16 11 -4 -3 11 -14 9 -16 -13 -16 -13 0 -30 7 -37
16 -10 13 -10 14 2 4 8 -7 18 -13 24 -13 5 0 1 6 -9 14 -11 8 -23 12 -27 9
-17 -10 -48 9 -48 30 0 18 -2 19 -10 7 -6 -10 -10 -11 -10 -2 0 6 -5 12 -11
12 -5 0 -7 -4 -4 -10 3 -6 -1 -7 -10 -4 -14 6 -14 8 2 19 17 13 17 13 -2 12
-11 -1 -24 -6 -28 -12 -4 -6 -7 -1 -5 10 2 11 -2 20 -9 20 -6 0 -15 4 -20 9
-4 5 -3 6 4 2 6 -3 14 -3 17 2 2 4 -6 8 -19 8 -13 0 -21 -4 -19 -8 3 -4 1 -8
-5 -8 -5 0 -11 10 -13 22 -3 21 -4 21 -20 4 -10 -10 -18 -14 -18 -9 0 5 5 14
11 20 9 9 6 10 -10 6 -12 -3 -21 -2 -19 3 2 5 -1 10 -6 11 -5 1 -13 7 -18 15
-8 10 -9 10 -5 -2 2 -8 10 -14 16 -12 7 1 10 -2 6 -8 -5 -8 -11 -8 -20 0 -8 7
-20 8 -26 4 -7 -4 -9 -3 -6 3 8 12 -17 36 -26 26 -10 -9 -37 17 -37 37 0 10
-7 20 -15 24 -8 3 -14 1 -12 -3 1 -5 -2 -9 -8 -10 -5 0 -9 10 -7 22 4 22 3 22
-13 2 -9 -11 -13 -14 -9 -6 5 11 3 13 -9 8 -9 -3 -19 -1 -23 5 -4 7 -3 8 4 4
7 -4 12 -2 12 3 0 15 -37 14 -43 -1 -2 -7 -9 3 -15 22 -6 19 -11 29 -11 23 -1
-7 -6 -13 -12 -13 -5 0 -7 6 -3 13 5 7 0 6 -11 -3 -10 -8 -16 -10 -12 -4 4 7
0 15 -9 18 -9 3 -12 11 -8 18 4 7 4 10 -1 6 -4 -4 -15 -2 -24 5 -14 11 -14 10
-2 -6 8 -9 11 -20 9 -23 -3 -3 -16 9 -28 25 -12 17 -28 31 -36 31 -8 0 -13 -4
-10 -8 3 -5 -1 -9 -9 -9 -8 0 -11 5 -7 11 10 17 11 36 1 36 -5 0 -9 -8 -9 -17
-1 -13 -5 -10 -16 10 -8 15 -22 27 -30 27 -8 0 -13 -4 -10 -8 3 -5 -1 -9 -8
-9 -7 0 -12 10 -10 23 2 20 -2 22 -32 18 -20 -2 -34 0 -34 6 0 6 -6 8 -12 4
-10 -6 -9 -3 0 8 12 15 10 16 -14 14 -19 -2 -36 5 -51 20 -25 26 -43 33 -24
11 8 -10 7 -14 -2 -14 -8 0 -14 6 -15 14 -1 7 -3 20 -4 28 -1 8 -5 12 -10 9
-5 -3 -6 -10 -3 -15 3 -5 -1 -6 -10 -3 -12 5 -13 9 -4 20 10 12 9 13 -5 8 -9
-3 -16 -10 -16 -15 0 -6 -6 -4 -14 3 -8 7 -12 17 -9 22 3 4 9 3 13 -4 5 -9 9
-9 14 -1 6 10 -6 15 -26 12 -5 0 -8 5 -8 12 0 8 -4 7 -10 -3 -8 -12 -10 -12
-10 5 0 17 -2 17 -10 5 -9 -13 -10 -13 -10 0 0 13 -1 13 -10 0 -8 -13 -10 -12
-10 4 0 11 -5 16 -14 13 -7 -3 -19 0 -26 6 -10 9 -11 9 -5 -2z m-375 -211 c0
-5 -5 -10 -11 -10 -5 0 -7 5 -4 10 3 6 8 10 11 10 2 0 4 -4 4 -10z m878 -65
c-3 -3 -9 2 -12 12 -6 14 -5 15 5 6 7 -7 10 -15 7 -18z m-1098 -69 c0 -3 -4
-8 -10 -11 -5 -3 -10 -1 -10 4 0 6 5 11 10 11 6 0 10 -2 10 -4z m1924 -378
c-3 -5 -10 -6 -15 -3 -5 4 -9 1 -9 -6 0 -7 -3 -10 -6 -6 -9 9 3 24 20 24 8 0
13 -4 10 -9z m271 -148 c3 -5 1 -10 -4 -10 -6 0 -11 5 -11 10 0 6 2 10 4 10 3
0 8 -4 11 -10z m-3185 -14 c0 -2 -6 -9 -14 -15 -11 -9 -16 -9 -22 0 -4 7 -3 9
4 5 6 -3 13 -2 17 4 6 10 15 14 15 6z m-284 -165 c0 -11 -5 -17 -13 -14 -10 4
-11 9 -2 19 15 18 15 18 15 -5z m3924 -80 c12 -8 11 -10 -7 -8 -12 0 -19 5
-17 9 3 4 -2 8 -10 8 -9 0 -16 5 -16 10 0 11 13 6 50 -19z m90 -2721 c0 -5 -2
-10 -4 -10 -3 0 -8 5 -11 10 -3 6 -1 10 4 10 6 0 11 -4 11 -10z m-165 -89 c3
-5 2 -12 -3 -15 -5 -3 -9 1 -9 9 0 17 3 19 12 6z m-225 -145 c0 -3 -4 -8 -10
-11 -5 -3 -10 -1 -10 4 0 6 5 11 10 11 6 0 10 -2 10 -4z m-3290 -142 c0 -8
-19 -13 -24 -6 -3 5 1 9 9 9 8 0 15 -2 15 -3z m2740 -163 c0 -5 -7 -12 -16
-15 -14 -5 -15 -4 -4 9 14 17 20 19 20 6z m-1769 -404 c-10 -9 -11 -8 -5 6 3
10 9 15 12 12 3 -3 0 -11 -7 -18z m768 -173 c-6 -8 -15 -12 -18 -8 -3 4 0 9 7
11 6 3 9 10 6 15 -4 7 -2 8 5 4 9 -6 9 -11 0 -22z m-349 -50 c0 -8 -19 -13
-24 -6 -3 5 1 9 9 9 8 0 15 -2 15 -3z"/>
<path d="M2316 5001 c-4 -5 -2 -12 3 -15 5 -4 12 -2 15 3 4 5 2 12 -3 15 -5 4
-12 2 -15 -3z"/>
<path d="M2055 4840 c3 -5 8 -10 11 -10 2 0 4 5 4 10 0 6 -5 10 -11 10 -5 0
-7 -4 -4 -10z"/>
<path d="M3342 4699 c2 -7 10 -15 17 -17 8 -3 12 1 9 9 -2 7 -10 15 -17 17 -8
3 -12 -1 -9 -9z"/>
<path d="M3380 4693 c0 -6 8 -17 18 -24 16 -13 16 -13 2 6 -8 11 -16 22 -17
24 -2 2 -3 0 -3 -6z"/>
<path d="M3670 4516 c7 -7 13 -7 20 0 6 6 3 10 -10 10 -13 0 -16 -4 -10 -10z"/>
<path d="M1413 4485 c0 -8 4 -12 9 -9 5 3 6 10 3 15 -9 13 -12 11 -12 -6z"/>
<path d="M3950 4383 c0 -5 10 -18 23 -29 l22 -19 -20 25 c-11 14 -21 27 -22
29 -2 2 -3 0 -3 -6z"/>
<path d="M906 4193 c-6 -14 -5 -15 5 -6 7 7 10 15 7 18 -3 3 -9 -2 -12 -12z"/>
<path d="M4420 4095 c14 -17 30 -20 30 -4 0 5 -4 7 -10 4 -5 -3 -10 -1 -10 4
0 6 -5 11 -11 11 -8 0 -8 -5 1 -15z"/>
<path d="M4497 4056 c15 -13 30 -23 32 -20 5 4 -41 43 -52 44 -4 0 5 -11 20
-24z"/>
<path d="M4770 1295 c-7 -9 -10 -18 -6 -22 3 -3 6 -1 6 6 0 7 4 10 8 7 5 -3 9
1 9 9 0 19 -2 19 -17 0z"/>
<path d="M436 1192 c-3 -5 1 -9 9 -9 8 0 12 4 9 9 -3 4 -7 8 -9 8 -2 0 -6 -4
-9 -8z"/>
<path d="M930 918 c0 -9 5 -20 10 -23 13 -8 13 5 0 25 -8 13 -10 13 -10 -2z"/>
<path d="M4037 873 c-4 -3 -7 -11 -7 -17 0 -6 5 -5 12 2 6 6 9 14 7 17 -3 3
-9 2 -12 -2z"/>
<path d="M1390 665 c0 -5 5 -17 10 -25 5 -8 10 -10 10 -5 0 6 -5 17 -10 25 -5
8 -10 11 -10 5z"/>
<path d="M3053 291 c0 -11 5 -18 9 -15 4 3 5 11 1 19 -7 21 -12 19 -10 -4z"/>
<path d="M2960 250 c-8 -5 -12 -12 -9 -15 4 -3 12 1 19 10 14 17 11 19 -10 5z"/>
<path d="M2880 205 c-11 -13 -10 -14 4 -9 9 3 16 10 16 15 0 13 -6 11 -20 -6z"/>
<path d="M2220 180 c-9 -6 -10 -10 -3 -10 6 0 15 5 18 10 8 12 4 12 -15 0z"/>
<path d="M2694 94 c-10 -8 -14 -13 -7 -10 6 4 14 0 16 -6 3 -8 6 -6 6 5 1 11
6 15 13 11 7 -4 8 -3 4 4 -9 15 -8 15 -32 -4z"/>
<path d="M2473 26 c0 -7 11 -12 24 -12 15 0 20 3 13 10 -14 14 -37 16 -37 2z"/>
</g>
</svg>
